# WaveFront *.obj file (generated by Autodesk ATF)

mtllib 7a3aeed3-0677-4350-a6b5-6e4dbd77256a.mtl

g Body1

v -47.187266 50.981680 0.000000
v -47.187266 57.690664 0.000000
v -47.187266 57.690664 1.000000
v -47.187266 50.981680 1.000000
v -45.766367 50.981680 0.000000
v -45.766367 50.981680 1.000000
v -45.766367 50.010000 0.000000
v -45.766367 50.010000 1.000000
v -49.877695 50.010000 0.000000
v -49.877695 50.010000 1.000000
v -49.877695 50.981680 0.000000
v -49.877695 50.981680 1.000000
v -48.378672 50.981680 0.000000
v -48.378672 50.981680 1.000000
v -48.378672 56.421133 0.000000
v -48.378672 56.421133 1.000000
v -49.789805 55.742422 0.000000
v -49.420418 55.877765 0.000000
v -49.059901 56.031448 0.000000
v -48.714582 56.216563 0.000000
v -48.714582 56.216563 1.000000
v -49.059901 56.031448 1.000000
v -49.420418 55.877765 1.000000
v -49.789805 55.742422 1.000000
v -49.990000 56.792227 0.000000
v -49.990000 56.792227 1.000000
v -48.212656 57.690664 0.000000
v -48.629959 57.412210 0.000000
v -49.061688 57.162491 0.000000
v -49.518172 56.962077 0.000000
v -49.518172 56.962077 1.000000
v -49.061688 57.162491 1.000000
v -48.629959 57.412210 1.000000
v -48.212656 57.690664 1.000000
vt 0.000000 0.000000 0.000000
vt 0.670898 0.000000 0.000000
vt 0.000000 0.100000 0.000000
vt 0.670898 0.100000 0.000000
vt -0.000000 0.000000 0.000000
vt 0.142090 0.000000 0.000000
vt -0.000000 0.100000 0.000000
vt 0.142090 0.100000 0.000000
vt 0.000000 0.000000 0.000000
vt 0.097168 0.000000 0.000000
vt 0.000000 0.100000 0.000000
vt 0.097168 0.100000 0.000000
vt 0.000000 0.000000 0.000000
vt 0.411133 0.000000 0.000000
vt 0.000000 0.100000 0.000000
vt 0.411133 0.100000 0.000000
vt -0.000000 0.000000 0.000000
vt 0.097168 0.000000 0.000000
vt -0.000000 0.100000 0.000000
vt 0.097168 0.100000 0.000000
vt -0.000000 0.000000 0.000000
vt 0.149902 0.000000 0.000000
vt -0.000000 0.100000 0.000000
vt 0.149902 0.100000 0.000000
vt -0.000000 0.000000 0.000000
vt 0.543945 0.000000 0.000000
vt -0.000000 0.100000 0.000000
vt 0.543945 0.100000 0.000000
vt -0.156588 0.000000 0.000000
vt -0.117441 0.000000 0.000000
vt -0.156588 0.100000 0.000000
vt -0.117441 0.100000 0.000000
vt -0.078294 0.000000 0.000000
vt -0.078294 0.100000 0.000000
vt -0.039147 0.000000 0.000000
vt -0.039147 0.100000 0.000000
vt 0.000000 0.000000 0.000000
vt 0.000000 0.100000 0.000000
vt 0.000000 0.000000 0.000000
vt 0.106872 0.000000 0.000000
vt 0.000000 0.100000 0.000000
vt 0.106872 0.100000 0.000000
vt -0.199154 0.000000 0.000000
vt -0.149365 0.000000 0.000000
vt -0.199154 0.100000 0.000000
vt -0.149365 0.100000 0.000000
vt -0.099577 0.000000 0.000000
vt -0.099577 0.100000 0.000000
vt -0.049788 0.000000 0.000000
vt -0.049788 0.100000 0.000000
vt 0.000000 0.000000 0.000000
vt 0.000000 0.100000 0.000000
vt -0.000000 0.000000 0.000000
vt 0.102539 0.000000 0.000000
vt -0.000000 0.100000 0.000000
vt 0.102539 0.100000 0.000000
vt 0.069092 -0.286865 0.000000
vt 0.069092 0.384033 0.000000
vt -0.050049 0.257080 0.000000
vt -0.033447 0.384033 0.000000
vt -0.075178 0.356188 0.000000
vt -0.118350 0.331216 0.000000
vt -0.083640 0.236623 0.000000
vt -0.118172 0.218112 0.000000
vt -0.163999 0.311175 0.000000
vt -0.154223 0.202743 0.000000
vt -0.211182 0.294189 0.000000
vt -0.191162 0.189209 0.000000
vt -0.050049 -0.286865 0.000000
vt 0.211182 -0.384033 0.000000
vt 0.211182 -0.286865 0.000000
vt -0.199951 -0.286865 0.000000
vt -0.199951 -0.384033 0.000000
vt 0.075178 0.356188 0.000000
vt 0.033447 0.384033 0.000000
vt 0.050049 0.257080 0.000000
vt -0.069092 0.384033 0.000000
vt -0.069092 -0.286865 0.000000
vt -0.211182 -0.286865 0.000000
vt -0.211182 -0.384033 0.000000
vt 0.050049 -0.286865 0.000000
vt 0.199951 -0.384033 0.000000
vt 0.199951 -0.286865 0.000000
vt 0.118350 0.331216 0.000000
vt 0.083640 0.236623 0.000000
vt 0.118172 0.218112 0.000000
vt 0.163999 0.311175 0.000000
vt 0.154223 0.202743 0.000000
vt 0.211182 0.294189 0.000000
vt 0.191162 0.189209 0.000000
vn 0.100000 0.000000 0.000000
vn 0.100000 0.000000 0.000000
vn 0.100000 0.000000 0.000000
vn 0.100000 0.000000 0.000000
vn 0.000000 0.100000 0.000000
vn 0.000000 0.100000 0.000000
vn 0.000000 0.100000 0.000000
vn 0.000000 0.100000 0.000000
vn 0.100000 0.000000 0.000000
vn 0.100000 0.000000 0.000000
vn 0.100000 0.000000 0.000000
vn 0.100000 0.000000 0.000000
vn 0.000000 -0.100000 0.000000
vn 0.000000 -0.100000 0.000000
vn 0.000000 -0.100000 0.000000
vn 0.000000 -0.100000 0.000000
vn -0.100000 0.000000 0.000000
vn -0.100000 0.000000 0.000000
vn -0.100000 0.000000 0.000000
vn -0.100000 0.000000 0.000000
vn 0.000000 0.100000 0.000000
vn 0.000000 0.100000 0.000000
vn 0.000000 0.100000 0.000000
vn 0.000000 0.100000 0.000000
vn -0.100000 0.000000 0.000000
vn -0.100000 0.000000 0.000000
vn -0.100000 0.000000 0.000000
vn -0.100000 0.000000 0.000000
vn 0.033597 -0.094187 0.000000
vn 0.036014 -0.093290 0.000000
vn 0.033597 -0.094187 0.000000
vn 0.036014 -0.093290 0.000000
vn 0.043162 -0.090206 0.000000
vn 0.043162 -0.090206 0.000000
vn 0.050445 -0.086344 0.000000
vn 0.050445 -0.086344 0.000000
vn 0.052789 -0.084931 0.000000
vn 0.052789 -0.084931 0.000000
vn -0.098230 -0.018732 0.000000
vn -0.098230 -0.018732 0.000000
vn -0.098230 -0.018732 0.000000
vn -0.098230 -0.018732 0.000000
vn -0.056382 0.082589 0.000000
vn -0.053724 0.084343 0.000000
vn -0.056382 0.082589 0.000000
vn -0.053724 0.084343 0.000000
vn -0.045346 0.089127 0.000000
vn -0.045346 0.089127 0.000000
vn -0.035991 0.093299 0.000000
vn -0.035991 0.093299 0.000000
vn -0.032808 0.094465 0.000000
vn -0.032808 0.094465 0.000000
vn 0.000000 0.100000 0.000000
vn 0.000000 0.100000 0.000000
vn 0.000000 0.100000 0.000000
vn 0.000000 0.100000 0.000000
vn 0.000000 0.000000 0.100000
vn 0.000000 0.000000 0.100000
vn 0.000000 0.000000 0.100000
vn 0.000000 0.000000 0.100000
vn 0.000000 0.000000 0.100000
vn 0.000000 0.000000 0.100000
vn 0.000000 0.000000 0.100000
vn 0.000000 0.000000 0.100000
vn 0.000000 0.000000 0.100000
vn 0.000000 0.000000 0.100000
vn 0.000000 0.000000 0.100000
vn 0.000000 0.000000 0.100000
vn 0.000000 0.000000 0.100000
vn 0.000000 0.000000 0.100000
vn 0.000000 0.000000 0.100000
vn 0.000000 0.000000 0.100000
vn 0.000000 0.000000 0.100000
vn 0.000000 0.000000 -0.100000
vn 0.000000 0.000000 -0.100000
vn 0.000000 0.000000 -0.100000
vn 0.000000 0.000000 -0.100000
vn 0.000000 0.000000 -0.100000
vn 0.000000 0.000000 -0.100000
vn 0.000000 0.000000 -0.100000
vn 0.000000 0.000000 -0.100000
vn 0.000000 0.000000 -0.100000
vn 0.000000 0.000000 -0.100000
vn 0.000000 0.000000 -0.100000
vn 0.000000 0.000000 -0.100000
vn 0.000000 0.000000 -0.100000
vn 0.000000 0.000000 -0.100000
vn 0.000000 0.000000 -0.100000
vn 0.000000 0.000000 -0.100000
vn 0.000000 0.000000 -0.100000
usemtl Steel_-_Satin
f 1/1/1 2/2/2 4/3/3
f 4/3/3 2/2/2 3/4/4
f 5/5/5 1/6/6 6/7/7
f 6/7/7 1/6/6 4/8/8
f 7/9/9 5/10/10 8/11/11
f 8/11/11 5/10/10 6/12/12
f 9/13/13 7/14/14 10/15/15
f 10/15/15 7/14/14 8/16/16
f 11/17/17 9/18/18 12/19/19
f 12/19/19 9/18/18 10/20/20
f 13/21/21 11/22/22 14/23/23
f 14/23/23 11/22/22 12/24/24
f 15/25/25 13/26/26 16/27/27
f 16/27/27 13/26/26 14/28/28
f 17/29/29 18/30/30 24/31/31
f 24/31/31 18/30/30 23/32/32
f 23/32/32 18/30/30 19/33/33
f 23/32/32 19/33/33 22/34/34
f 22/34/34 19/33/33 20/35/35
f 22/34/34 20/35/35 21/36/36
f 21/36/36 20/35/35 15/37/37
f 21/36/36 15/37/37 16/38/38
f 25/39/39 17/40/40 26/41/41
f 26/41/41 17/40/40 24/42/42
f 27/43/43 28/44/44 34/45/45
f 34/45/45 28/44/44 33/46/46
f 33/46/46 28/44/44 29/47/47
f 33/46/46 29/47/47 32/48/48
f 32/48/48 29/47/47 30/49/49
f 32/48/48 30/49/49 31/50/50
f 31/50/50 30/49/49 25/51/51
f 31/50/50 25/51/51 26/52/52
f 2/53/53 27/54/54 3/55/55
f 3/55/55 27/54/54 34/56/56
f 4/57/57 3/58/58 16/59/59
f 16/59/59 3/58/58 34/60/60
f 16/59/59 34/60/60 33/61/61
f 33/61/61 32/62/62 16/59/59
f 16/59/59 32/62/62 21/63/63
f 21/63/63 32/62/62 22/64/64
f 22/64/64 32/62/62 31/65/65
f 22/64/64 31/65/65 23/66/66
f 23/66/66 31/65/65 26/67/67
f 23/66/66 26/67/67 24/68/68
f 16/59/59 14/69/69 4/57/57
f 4/57/57 14/69/69 8/70/70
f 4/57/57 8/70/70 6/71/71
f 12/72/72 10/73/73 14/69/69
f 14/69/69 10/73/73 8/70/70
f 28/74/74 27/75/75 15/76/76
f 15/76/76 27/75/75 2/77/77
f 15/76/76 2/77/77 1/78/78
f 5/79/79 7/80/80 1/78/78
f 1/78/78 7/80/80 13/81/81
f 1/78/78 13/81/81 15/76/76
f 7/80/80 9/82/82 13/81/81
f 13/81/81 9/82/82 11/83/83
f 28/74/74 15/76/76 29/84/84
f 29/84/84 15/76/76 20/85/85
f 29/84/84 20/85/85 19/86/86
f 29/84/84 19/86/86 30/87/87
f 30/87/87 19/86/86 18/88/88
f 30/87/87 18/88/88 25/89/89
f 25/89/89 18/88/88 17/90/90

# 34 vertices
# 90 texture params
# 90 normals
# 64 facets

# 1 groups
